<mxfile host="65bd71144e">
    <diagram id="3v5aELojM_66MGq2g8iy" name="Page-1">
        <mxGraphModel dx="1254" dy="749" grid="1" gridSize="10" guides="1" tooltips="1" connect="1" arrows="1" fold="1" page="1" pageScale="1" pageWidth="850" pageHeight="1100" math="0" shadow="0">
            <root>
                <mxCell id="0"/>
                <mxCell id="1" parent="0"/>
                <mxCell id="49" value="" style="rounded=0;whiteSpace=wrap;html=1;" vertex="1" parent="1">
                    <mxGeometry width="850" height="620" as="geometry"/>
                </mxCell>
                <mxCell id="3" value="&lt;&lt;VM&gt;&gt; Web and API" style="swimlane;" vertex="1" parent="1">
                    <mxGeometry x="30" y="40" width="530" height="537.5" as="geometry"/>
                </mxCell>
                <mxCell id="8" value="&lt;&lt;docker contianer&gt;&gt;" style="swimlane;" vertex="1" parent="3">
                    <mxGeometry x="20" y="340" width="220" height="170" as="geometry"/>
                </mxCell>
                <mxCell id="13" value="&lt;b&gt;Grafana&lt;/b&gt;" style="html=1;dropTarget=0;whiteSpace=wrap;" vertex="1" parent="8">
                    <mxGeometry x="20" y="50" width="180" height="90" as="geometry"/>
                </mxCell>
                <mxCell id="14" value="" style="shape=module;jettyWidth=8;jettyHeight=4;" vertex="1" parent="13">
                    <mxGeometry x="1" width="20" height="20" relative="1" as="geometry">
                        <mxPoint x="-27" y="7" as="offset"/>
                    </mxGeometry>
                </mxCell>
                <mxCell id="61" value="" style="rounded=0;whiteSpace=wrap;html=1;" vertex="1" parent="8">
                    <mxGeometry x="190" y="85" width="20" height="20" as="geometry"/>
                </mxCell>
                <mxCell id="15" value="&lt;&lt;docker contianer&gt;&gt;" style="swimlane;" vertex="1" parent="3">
                    <mxGeometry x="262" y="340" width="218" height="170" as="geometry"/>
                </mxCell>
                <mxCell id="16" value="&lt;b&gt;Prometheus&lt;/b&gt;" style="html=1;dropTarget=0;whiteSpace=wrap;" vertex="1" parent="15">
                    <mxGeometry x="19" y="50" width="181" height="90" as="geometry"/>
                </mxCell>
                <mxCell id="17" value="" style="shape=module;jettyWidth=8;jettyHeight=4;" vertex="1" parent="16">
                    <mxGeometry x="1" width="20" height="20" relative="1" as="geometry">
                        <mxPoint x="-27" y="7" as="offset"/>
                    </mxGeometry>
                </mxCell>
                <mxCell id="62" value="" style="rounded=0;whiteSpace=wrap;html=1;" vertex="1" parent="15">
                    <mxGeometry x="10" y="85" width="20" height="20" as="geometry"/>
                </mxCell>
                <mxCell id="64" value="" style="rounded=0;whiteSpace=wrap;html=1;" vertex="1" parent="15">
                    <mxGeometry x="190" y="85" width="20" height="20" as="geometry"/>
                </mxCell>
                <mxCell id="18" value="&lt;&lt;docker swarm&gt;&gt;" style="swimlane;" vertex="1" parent="3">
                    <mxGeometry x="20" y="55" width="460" height="255" as="geometry"/>
                </mxCell>
                <mxCell id="19" value="«Service»&lt;div&gt;&lt;font color=&quot;#000000&quot;&gt;(2 replicas)&lt;br&gt;&lt;/font&gt;&lt;b&gt;Web application&lt;/b&gt;&lt;/div&gt;" style="html=1;dropTarget=0;whiteSpace=wrap;" vertex="1" parent="18">
                    <mxGeometry x="20" y="145" width="180" height="90" as="geometry"/>
                </mxCell>
                <mxCell id="20" value="" style="shape=module;jettyWidth=8;jettyHeight=4;" vertex="1" parent="19">
                    <mxGeometry x="1" width="20" height="20" relative="1" as="geometry">
                        <mxPoint x="-27" y="7" as="offset"/>
                    </mxGeometry>
                </mxCell>
                <mxCell id="41" value="«Service»&lt;div&gt;&lt;font color=&quot;#000000&quot;&gt;(5 replicas)&lt;br&gt;&lt;/font&gt;&lt;b&gt;API application&lt;/b&gt;&lt;/div&gt;" style="html=1;dropTarget=0;whiteSpace=wrap;" vertex="1" parent="18">
                    <mxGeometry x="260" y="145" width="180" height="90" as="geometry"/>
                </mxCell>
                <mxCell id="42" value="" style="shape=module;jettyWidth=8;jettyHeight=4;" vertex="1" parent="41">
                    <mxGeometry x="1" width="20" height="20" relative="1" as="geometry">
                        <mxPoint x="-27" y="7" as="offset"/>
                    </mxGeometry>
                </mxCell>
                <mxCell id="43" value="Manager node" style="html=1;dropTarget=0;whiteSpace=wrap;" vertex="1" parent="18">
                    <mxGeometry x="140" y="35" width="180" height="90" as="geometry"/>
                </mxCell>
                <mxCell id="44" value="" style="shape=module;jettyWidth=8;jettyHeight=4;" vertex="1" parent="43">
                    <mxGeometry x="1" width="20" height="20" relative="1" as="geometry">
                        <mxPoint x="-27" y="7" as="offset"/>
                    </mxGeometry>
                </mxCell>
                <mxCell id="51" value="" style="rounded=0;whiteSpace=wrap;html=1;" vertex="1" parent="18">
                    <mxGeometry x="430" y="180" width="20" height="20" as="geometry"/>
                </mxCell>
                <mxCell id="52" value="" style="rounded=0;whiteSpace=wrap;html=1;" vertex="1" parent="18">
                    <mxGeometry x="250" y="180" width="20" height="20" as="geometry"/>
                </mxCell>
                <mxCell id="53" value="" style="rounded=0;whiteSpace=wrap;html=1;" vertex="1" parent="18">
                    <mxGeometry x="190" y="180" width="20" height="20" as="geometry"/>
                </mxCell>
                <mxCell id="55" value="" style="endArrow=none;html=1;entryX=0;entryY=0.5;entryDx=0;entryDy=0;exitX=1;exitY=0.5;exitDx=0;exitDy=0;" edge="1" parent="18" source="53" target="52">
                    <mxGeometry width="50" height="50" relative="1" as="geometry">
                        <mxPoint x="210" y="195" as="sourcePoint"/>
                        <mxPoint x="260" y="145" as="targetPoint"/>
                    </mxGeometry>
                </mxCell>
                <mxCell id="63" value="" style="endArrow=none;html=1;exitX=1;exitY=0.5;exitDx=0;exitDy=0;entryX=0;entryY=0.5;entryDx=0;entryDy=0;" edge="1" parent="3" source="61" target="62">
                    <mxGeometry width="50" height="50" relative="1" as="geometry">
                        <mxPoint x="230" y="440" as="sourcePoint"/>
                        <mxPoint x="280" y="390" as="targetPoint"/>
                    </mxGeometry>
                </mxCell>
                <mxCell id="65" value="" style="endArrow=none;html=1;exitX=1;exitY=0.5;exitDx=0;exitDy=0;rounded=0;curved=0;entryX=1;entryY=0.5;entryDx=0;entryDy=0;" edge="1" parent="3" source="64" target="51">
                    <mxGeometry width="50" height="50" relative="1" as="geometry">
                        <mxPoint x="490" y="440" as="sourcePoint"/>
                        <mxPoint x="510" y="250" as="targetPoint"/>
                        <Array as="points">
                            <mxPoint x="510" y="435"/>
                            <mxPoint x="510" y="245"/>
                        </Array>
                    </mxGeometry>
                </mxCell>
                <mxCell id="4" value="&lt;&lt;VM&gt;&gt; Database" style="swimlane;startSize=23;" vertex="1" parent="1">
                    <mxGeometry x="600" y="40" width="220" height="370" as="geometry"/>
                </mxCell>
                <mxCell id="5" value="&lt;&lt;docker contianer&gt;&gt;" style="swimlane;" vertex="1" parent="4">
                    <mxGeometry x="40" y="100" width="145" height="170" as="geometry"/>
                </mxCell>
                <mxCell id="6" value="" style="shape=datastore;whiteSpace=wrap;html=1;" vertex="1" parent="5">
                    <mxGeometry x="45" y="60" width="60" height="60" as="geometry"/>
                </mxCell>
                <mxCell id="7" value="PostgresSQL database" style="text;html=1;align=center;verticalAlign=middle;whiteSpace=wrap;rounded=0;" vertex="1" parent="5">
                    <mxGeometry x="45" y="125" width="60" height="30" as="geometry"/>
                </mxCell>
                <mxCell id="58" value="" style="rounded=0;whiteSpace=wrap;html=1;" vertex="1" parent="4">
                    <mxGeometry x="30" y="175" width="20" height="20" as="geometry"/>
                </mxCell>
                <mxCell id="59" value="" style="endArrow=none;html=1;entryX=0;entryY=0.5;entryDx=0;entryDy=0;exitX=1;exitY=0.5;exitDx=0;exitDy=0;rounded=0;curved=0;" edge="1" parent="1" source="51" target="58">
                    <mxGeometry width="50" height="50" relative="1" as="geometry">
                        <mxPoint x="500" y="290" as="sourcePoint"/>
                        <mxPoint x="550" y="240" as="targetPoint"/>
                        <Array as="points">
                            <mxPoint x="580" y="285"/>
                            <mxPoint x="580" y="225"/>
                        </Array>
                    </mxGeometry>
                </mxCell>
            </root>
        </mxGraphModel>
    </diagram>
</mxfile>